<svg width="170" height="169" viewBox="0 0 170 169" fill="none" xmlns="http://www.w3.org/2000/svg">
<g filter="url(#filter0_d_11_3)">
<rect x="10.1837" y="3.18367" width="149.633" height="149.633" rx="27.0612" fill="url(#paint0_linear_11_3)" stroke="#1F2A66" stroke-width="6.36735"/>
<path d="M58.6694 113.762C49.6635 104.715 45.1606 93.9081 45.1606 81.3408C45.1606 68.7735 49.6635 57.9868 58.6694 48.9809C67.6753 39.975 78.4619 35.4721 91.0292 35.4721C101.263 35.4721 110.576 38.6446 118.968 44.9897L111.661 52.2968C105.275 47.4254 98.3977 44.9897 91.0292 44.9897C81.4912 44.9897 73.3449 48.5511 66.5905 55.674C59.8361 62.7968 56.4589 71.3524 56.4589 81.3408C56.4589 91.3291 59.8361 99.8847 66.5905 107.008C73.3449 114.13 81.4912 117.692 91.0292 117.692C98.5615 117.692 105.439 115.297 111.661 110.508L118.968 117.815C110.494 124.119 101.181 127.271 91.0292 127.271C78.4619 127.271 67.6753 122.768 58.6694 113.762Z" fill="#1F2A66"/>
<path d="M58.6694 113.762L54.1568 118.254L54.1619 118.259L54.167 118.264L58.6694 113.762ZM118.968 44.9897L123.47 49.4921L128.641 44.3211L122.808 39.9107L118.968 44.9897ZM111.661 52.2968L107.799 57.3593L112.226 60.7363L116.163 56.7991L111.661 52.2968ZM111.661 110.508L116.163 106.005L112.209 102.051L107.777 105.462L111.661 110.508ZM118.968 117.815L122.769 122.923L128.682 118.524L123.47 113.312L118.968 117.815ZM63.182 109.27C55.343 101.395 51.5279 92.1949 51.5279 81.3408H38.7932C38.7932 95.6213 43.984 108.035 54.1568 118.254L63.182 109.27ZM51.5279 81.3408C51.5279 70.4875 55.342 61.3132 63.1718 53.4833L54.167 44.4785C43.985 54.6605 38.7932 67.0594 38.7932 81.3408H51.5279ZM63.1718 53.4833C71.0016 45.6535 80.176 41.8394 91.0292 41.8394V29.1047C76.7479 29.1047 64.349 34.2966 54.167 44.4785L63.1718 53.4833ZM91.0292 41.8394C99.8358 41.8394 107.808 44.5344 115.128 50.0687L122.808 39.9107C113.344 32.7548 102.691 29.1047 91.0292 29.1047V41.8394ZM114.466 40.4873L107.159 47.7944L116.163 56.7991L123.47 49.4921L114.466 40.4873ZM115.523 47.2342C108.133 41.5973 99.9208 38.6223 91.0292 38.6223V51.357C96.8746 51.357 102.417 53.2535 107.799 57.3593L115.523 47.2342ZM91.0292 38.6223C79.6871 38.6223 69.8874 42.9436 61.9702 51.2926L71.2108 60.0553C76.8024 54.1587 83.2952 51.357 91.0292 51.357V38.6223ZM61.9702 51.2926C54.0723 59.6213 50.0915 69.754 50.0915 81.3408H62.8262C62.8262 72.9508 65.5998 65.9723 71.2108 60.0553L61.9702 51.2926ZM50.0915 81.3408C50.0915 92.9275 54.0723 103.06 61.9702 111.389L71.2108 102.626C65.5998 96.7093 62.8262 89.7307 62.8262 81.3408H50.0915ZM61.9702 111.389C69.8874 119.738 79.6871 124.059 91.0292 124.059V111.325C83.2952 111.325 76.8024 108.523 71.2108 102.626L61.9702 111.389ZM91.0292 124.059C100.029 124.059 108.26 121.161 115.545 115.553L107.777 105.462C102.617 109.434 97.0937 111.325 91.0292 111.325V124.059ZM107.159 115.01L114.466 122.317L123.47 113.312L116.163 106.005L107.159 115.01ZM115.167 112.706C107.745 118.228 99.7541 120.904 91.0292 120.904V133.638C102.609 133.638 113.244 130.009 122.769 122.923L115.167 112.706ZM91.0292 120.904C80.176 120.904 71.0016 117.089 63.1718 109.26L54.167 118.264C64.349 128.446 76.7479 133.638 91.0292 133.638V120.904Z" fill="#1F2A66"/>
<path d="M87.9909 90.8948C85.0269 87.9174 83.545 84.3606 83.545 80.2245C83.545 76.0885 85.0269 72.5384 87.9909 69.5745C90.9549 66.6105 94.5049 65.1285 98.641 65.1285C102.009 65.1285 105.074 66.1726 107.836 68.2609L105.431 70.6657C103.329 69.0625 101.066 68.2609 98.641 68.2609C95.5019 68.2609 92.8208 69.433 90.5979 71.7772C88.3749 74.1215 87.2634 76.9372 87.2634 80.2245C87.2634 83.5118 88.3749 86.3276 90.5979 88.6718C92.8208 91.0161 95.5019 92.1882 98.641 92.1882C101.12 92.1882 103.383 91.4 105.431 89.8237L107.836 92.2286C105.047 94.3034 101.982 95.3408 98.641 95.3408C94.5049 95.3408 90.9549 93.8588 87.9909 90.8948Z" fill="#1F2A66"/>
<path d="M87.9909 90.8948L86.8628 92.0179L86.8653 92.0204L87.9909 90.8948ZM107.836 68.2609L108.962 69.3865L110.254 68.0938L108.796 66.9911L107.836 68.2609ZM105.431 70.6657L104.466 71.9314L105.572 72.7756L106.557 71.7913L105.431 70.6657ZM105.431 89.8237L106.557 88.6982L105.568 87.7095L104.46 88.5623L105.431 89.8237ZM107.836 92.2286L108.786 93.5058L110.265 92.4059L108.962 91.103L107.836 92.2286ZM89.1191 89.7718C86.4468 87.0874 85.1368 83.9323 85.1368 80.2245H81.9531C81.9531 84.7889 83.6071 88.7474 86.8628 92.0179L89.1191 89.7718ZM85.1368 80.2245C85.1368 76.517 86.4466 73.37 89.1165 70.7001L86.8653 68.4489C83.6073 71.7069 81.9531 75.6599 81.9531 80.2245H85.1368ZM89.1165 70.7001C91.7865 68.0301 94.9334 66.7204 98.641 66.7204V63.5367C94.0764 63.5367 90.1233 65.1909 86.8653 68.4489L89.1165 70.7001ZM98.641 66.7204C101.652 66.7204 104.382 67.6451 106.876 69.5306L108.796 66.9911C105.766 64.7002 102.366 63.5367 98.641 63.5367V66.7204ZM106.71 67.1353L104.306 69.5401L106.557 71.7913L108.962 69.3865L106.71 67.1353ZM106.397 69.4001C104.044 67.6055 101.447 66.6691 98.641 66.6691V69.8527C100.685 69.8527 102.615 70.5195 104.466 71.9314L106.397 69.4001ZM98.641 66.6691C95.0509 66.6691 91.9565 68.0311 89.4428 70.6819L91.7529 72.8726C93.6852 70.8349 95.9529 69.8527 98.641 69.8527V66.6691ZM89.4428 70.6819C86.9339 73.3276 85.6716 76.5376 85.6716 80.2245H88.8552C88.8552 77.3368 89.8158 74.9153 91.7529 72.8726L89.4428 70.6819ZM85.6716 80.2245C85.6716 83.9115 86.9339 87.1215 89.4428 89.7672L91.7529 87.5765C89.8158 85.5337 88.8552 83.1122 88.8552 80.2245H85.6716ZM89.4428 89.7672C91.9565 92.418 95.0509 93.78 98.641 93.78V90.5963C95.9529 90.5963 93.6852 89.6142 91.7529 87.5765L89.4428 89.7672ZM98.641 93.78C101.487 93.78 104.089 92.8659 106.402 91.0852L104.46 88.5623C102.678 89.9342 100.753 90.5963 98.641 90.5963V93.78ZM104.306 90.9493L106.71 93.3542L108.962 91.103L106.557 88.6982L104.306 90.9493ZM106.886 90.9514C104.36 92.8307 101.625 93.7489 98.641 93.7489V96.9326C102.339 96.9326 105.735 95.776 108.786 93.5058L106.886 90.9514ZM98.641 93.7489C94.9334 93.7489 91.7865 92.4392 89.1165 89.7692L86.8653 92.0204C90.1233 95.2784 94.0764 96.9326 98.641 96.9326V93.7489Z" fill="#1F2A66"/>
</g>
<defs>
<filter id="filter0_d_11_3" x="0.632653" y="0" width="168.735" height="168.735" filterUnits="userSpaceOnUse" color-interpolation-filters="sRGB">
<feFlood flood-opacity="0" result="BackgroundImageFix"/>
<feColorMatrix in="SourceAlpha" type="matrix" values="0 0 0 0 0 0 0 0 0 0 0 0 0 0 0 0 0 0 127 0" result="hardAlpha"/>
<feOffset dy="6.36735"/>
<feGaussianBlur stdDeviation="3.18367"/>
<feComposite in2="hardAlpha" operator="out"/>
<feColorMatrix type="matrix" values="0 0 0 0 0 0 0 0 0 0 0 0 0 0 0 0 0 0 0.25 0"/>
<feBlend mode="normal" in2="BackgroundImageFix" result="effect1_dropShadow_11_3"/>
<feBlend mode="normal" in="SourceGraphic" in2="effect1_dropShadow_11_3" result="shape"/>
</filter>
<linearGradient id="paint0_linear_11_3" x1="13.3673" y1="-39" x2="268.857" y2="302.449" gradientUnits="userSpaceOnUse">
<stop offset="0.234375" stop-color="white"/>
<stop offset="0.416667" stop-color="#DCDCDC"/>
</linearGradient>
</defs>
</svg>
